<svg width="155" height="29" viewBox="0 0 155 29" fill="none" xmlns="http://www.w3.org/2000/svg">
<g clip-path="url(#clip0_1_161)">
<path d="M24.6774 0.160221L23.5484 6.8895L5.80645 6.72928L0 6.56906L1.29032 0H6.93548L24.6774 0.160221Z" fill="#00233F"/>
<path d="M25.8069 11.2159L24.5166 17.9452H18.8714L3.54883 17.7849L4.83915 11.0557L20.0004 11.2159H25.8069Z" fill="#2E8DFF"/>
<path d="M21.2901 22.4307L20.9675 24.0329L19.9998 28.9997H8.22559L8.38688 27.718L9.35462 22.4307H21.2901Z" fill="#FF9700"/>
<path d="M48.2253 9.77344L43.8705 21.6298L39.5157 9.77344H35.4834L42.0963 26.4364H45.806L52.4189 9.77344H48.2253Z" fill="#2E8DFF"/>
<path d="M58.225 3.04427C57.7411 2.56361 57.0959 2.24316 56.4508 2.24316C55.8056 2.24316 55.1604 2.56361 54.6766 3.04427C54.1927 3.52493 53.8701 4.16582 53.8701 4.8067C53.8701 5.44758 54.1927 6.08847 54.6766 6.56913C55.1604 7.04979 55.8056 7.37024 56.4508 7.37024C57.0959 7.37024 57.7411 7.04979 58.225 6.56913C58.7088 6.08847 59.0314 5.44758 59.0314 4.8067C59.0314 4.16582 58.7088 3.52493 58.225 3.04427ZM54.354 9.77355V26.4365H58.225V9.77355H54.354Z" fill="#2E8DFF"/>
<path d="M72.096 18.2652C71.6121 17.9448 70.1605 17.3039 68.0637 16.3426C66.2895 15.7017 65.4831 15.0608 65.4831 14.2597C65.4831 13.779 65.6444 13.4586 66.1282 13.1381C66.4508 12.9779 66.9347 12.8177 67.4186 12.8177C69.0315 12.8177 70.3218 13.4586 71.6121 14.5801L73.5476 11.5359C71.6121 10.2542 69.6766 9.61328 67.4186 9.61328C65.6444 9.61328 64.3541 10.0939 63.225 10.895C62.096 11.8564 61.6121 12.9779 61.6121 14.2597C61.6121 15.7017 62.096 16.8232 62.9024 17.6243C63.7089 18.4254 64.9992 19.0663 66.7734 19.7072C68.0637 20.1879 68.8702 20.5083 69.354 20.8287C69.8379 21.1492 69.9992 21.4696 69.9992 21.7901C69.9992 22.2707 69.8379 22.7514 69.354 23.0718C68.8702 23.3923 68.3863 23.5525 67.5799 23.5525C65.6444 23.5525 64.0315 22.9116 62.7411 21.6299L60.8057 24.5138C62.5799 26.116 64.8379 26.9171 67.5799 26.9171C69.6766 26.9171 71.1282 26.4365 72.2573 25.4752C73.3863 24.5138 73.8702 23.2321 73.8702 21.7901C73.8702 20.1879 73.225 19.0663 72.096 18.2652Z" fill="#2E8DFF"/>
<path d="M88.0637 9.7735V11.8564C86.7734 10.2542 84.9992 9.61328 82.9024 9.61328C80.6443 9.61328 78.7089 10.4144 77.096 12.0166C75.483 13.6188 74.8379 15.7017 74.8379 18.2652C74.8379 20.8287 75.6443 22.9116 77.096 24.5138C78.5476 26.116 80.6443 26.9171 82.9024 26.9171C85.1605 26.9171 86.9347 26.116 88.225 24.3536V26.5967H91.9347V9.7735H88.0637ZM86.9347 21.9503C85.9669 22.9116 84.8379 23.3923 83.5476 23.3923C82.096 23.3923 80.9669 22.9116 79.9992 21.9503C79.0314 20.989 78.7089 19.8674 78.7089 18.2652C78.7089 16.663 79.1927 15.3812 80.1605 14.4199C81.1282 13.4586 82.2572 12.9779 83.5476 12.9779C84.9992 12.9779 86.1282 13.4586 86.9347 14.4199C87.9024 15.3812 88.225 16.663 88.225 18.105C88.225 19.7072 87.9024 20.989 86.9347 21.9503Z" fill="#2E8DFF"/>
<path d="M99.516 3.04427C99.0321 2.56361 98.3869 2.24316 97.7418 2.24316C97.0966 2.24316 96.4515 2.56361 95.9676 3.04427C95.4837 3.52493 95.1611 4.16582 95.1611 4.8067C95.1611 5.44758 95.4837 6.08847 95.9676 6.56913C96.4515 7.04979 97.0966 7.37024 97.7418 7.37024C98.3869 7.37024 99.0321 7.04979 99.516 6.56913C99.9998 6.08847 100.322 5.44758 100.322 4.8067C100.322 4.16582 99.9998 3.52493 99.516 3.04427ZM95.645 9.77355V26.4365H99.516V9.77355H95.645Z" fill="#00233F"/>
<path d="M117.58 11.3757C116.451 10.0939 115 9.61328 113.064 9.61328C110.806 9.61328 108.87 10.4144 107.419 12.1768V9.7735H103.548V26.4365H107.419V18.105C107.419 16.5028 107.741 15.221 108.548 14.4199C109.354 13.4586 110.322 13.1381 111.774 13.1381C113.064 13.1381 113.87 13.4586 114.516 14.2597C115.161 14.9006 115.483 16.1823 115.483 17.7846V26.5967H119.354V16.8232C119.193 14.2597 118.709 12.4973 117.58 11.3757Z" fill="#00233F"/>
<path d="M130.806 22.4308C129.838 22.9115 129.031 23.0717 128.386 23.0717C127.741 23.0717 127.419 22.9115 127.096 22.591C126.773 22.2706 126.773 21.6297 126.773 20.8286V13.138H131.773V9.93359H126.773V7.53027H122.902V9.93359H120.806V13.138H122.902V21.3093C122.902 23.0717 123.386 24.5137 124.193 25.475C124.999 26.4363 126.128 26.917 127.58 26.917C129.193 26.917 130.644 26.5966 131.935 25.9557L130.806 22.4308Z" fill="#00233F"/>
<path d="M148.225 17.9448C148.225 15.5415 147.418 13.4586 145.967 11.8564C144.515 10.2542 142.418 9.45312 139.999 9.45312C137.58 9.45312 135.644 10.2542 134.193 11.8564C132.58 13.4586 131.935 15.5415 131.935 18.1051C131.935 20.6686 132.741 22.7515 134.354 24.3537C135.967 25.9559 138.064 26.757 140.483 26.757C143.547 26.757 145.967 25.6354 147.58 23.5526L144.838 21.3095C143.709 22.5912 142.418 23.2321 140.644 23.2321C139.354 23.2321 138.386 22.9117 137.58 22.2708C136.773 21.6299 136.128 20.6686 135.967 19.547H148.225C148.225 18.9062 148.225 18.4255 148.225 17.9448ZM135.967 16.3426C136.289 15.2211 136.773 14.42 137.58 13.7791C138.386 13.1382 139.354 12.8178 140.322 12.8178C141.451 12.8178 142.257 13.1382 142.902 13.7791C143.547 14.42 144.031 15.2211 144.354 16.1824H135.967V16.3426Z" fill="#00233F"/>
<path d="M151.129 7.53027V26.5966H155V7.53027H151.129Z" fill="#00233F"/>
</g>
<defs>
<clipPath id="clip0_1_161">
<rect width="155" height="29" fill="white"/>
</clipPath>
</defs>
</svg>
